<mxfile host="Electron" modified="2024-03-07T15:38:25.627Z" agent="Mozilla/5.0 (Windows NT 10.0; Win64; x64) AppleWebKit/537.36 (KHTML, like Gecko) draw.io/21.2.8 Chrome/112.0.5615.165 Electron/24.2.0 Safari/537.36" etag="C2x80Nzz_g2scpx6yi4Q" version="21.2.8" type="device">
  <diagram id="Ut4VguKtvyHCrpZcuwIO" name="Pagina-2">
    <mxGraphModel dx="1863" dy="1775" grid="1" gridSize="10" guides="1" tooltips="1" connect="1" arrows="1" fold="1" page="1" pageScale="1" pageWidth="827" pageHeight="1169" math="0" shadow="0">
      <root>
        <mxCell id="0" />
        <mxCell id="1" parent="0" />
        <mxCell id="RDCLP5AUgi_ZmiMjlqTn-15" style="rounded=0;orthogonalLoop=1;jettySize=auto;html=1;exitX=0.5;exitY=1;exitDx=0;exitDy=0;entryX=0;entryY=0.5;entryDx=0;entryDy=0;fillColor=#f8cecc;strokeColor=#b85450;" parent="1" source="yq_R9H17UePYOClQ4IBd-2" target="RDCLP5AUgi_ZmiMjlqTn-11" edge="1">
          <mxGeometry relative="1" as="geometry" />
        </mxCell>
        <mxCell id="yq_R9H17UePYOClQ4IBd-2" value="&lt;font style=&quot;font-size: 11px;&quot;&gt;Size of&amp;nbsp;&lt;br&gt;Government&lt;/font&gt;" style="ellipse;whiteSpace=wrap;html=1;aspect=fixed;" parent="1" vertex="1">
          <mxGeometry x="160" y="360" width="80" height="80" as="geometry" />
        </mxCell>
        <mxCell id="RDCLP5AUgi_ZmiMjlqTn-23" style="rounded=0;orthogonalLoop=1;jettySize=auto;html=1;exitX=0;exitY=1;exitDx=0;exitDy=0;entryX=0.5;entryY=0;entryDx=0;entryDy=0;fillColor=#f8cecc;strokeColor=#b85450;" parent="1" source="yq_R9H17UePYOClQ4IBd-4" target="RDCLP5AUgi_ZmiMjlqTn-7" edge="1">
          <mxGeometry relative="1" as="geometry" />
        </mxCell>
        <mxCell id="RDCLP5AUgi_ZmiMjlqTn-24" style="rounded=0;orthogonalLoop=1;jettySize=auto;html=1;exitX=0.5;exitY=1;exitDx=0;exitDy=0;entryX=0.5;entryY=0;entryDx=0;entryDy=0;fillColor=#f8cecc;strokeColor=#b85450;" parent="1" source="yq_R9H17UePYOClQ4IBd-4" target="RDCLP5AUgi_ZmiMjlqTn-8" edge="1">
          <mxGeometry relative="1" as="geometry" />
        </mxCell>
        <mxCell id="ULl_AFH3r0cVJ4OgVGjS-2" style="rounded=0;orthogonalLoop=1;jettySize=auto;html=1;exitX=1;exitY=1;exitDx=0;exitDy=0;entryX=0;entryY=0;entryDx=0;entryDy=0;" edge="1" parent="1" source="yq_R9H17UePYOClQ4IBd-4" target="RDCLP5AUgi_ZmiMjlqTn-9">
          <mxGeometry relative="1" as="geometry" />
        </mxCell>
        <mxCell id="yq_R9H17UePYOClQ4IBd-4" value="&lt;font style=&quot;font-size: 11px;&quot;&gt;Parliamentary&lt;br&gt;Support&lt;/font&gt;" style="ellipse;whiteSpace=wrap;html=1;aspect=fixed;" parent="1" vertex="1">
          <mxGeometry x="70" y="120" width="80" height="80" as="geometry" />
        </mxCell>
        <mxCell id="RDCLP5AUgi_ZmiMjlqTn-17" style="rounded=0;orthogonalLoop=1;jettySize=auto;html=1;exitX=0.5;exitY=1;exitDx=0;exitDy=0;fillColor=#f8cecc;strokeColor=#b85450;" parent="1" source="yq_R9H17UePYOClQ4IBd-6" target="RDCLP5AUgi_ZmiMjlqTn-10" edge="1">
          <mxGeometry relative="1" as="geometry" />
        </mxCell>
        <mxCell id="yq_R9H17UePYOClQ4IBd-6" value="&lt;font style=&quot;font-size: 11px;&quot;&gt;&lt;font style=&quot;font-size: 11px;&quot;&gt;Parliamentary&lt;/font&gt;&lt;br&gt;Opposition&lt;/font&gt;" style="ellipse;whiteSpace=wrap;html=1;aspect=fixed;" parent="1" vertex="1">
          <mxGeometry x="200" y="120" width="80" height="80" as="geometry" />
        </mxCell>
        <mxCell id="RDCLP5AUgi_ZmiMjlqTn-12" style="rounded=0;orthogonalLoop=1;jettySize=auto;html=1;exitX=0.5;exitY=1;exitDx=0;exitDy=0;entryX=0.5;entryY=0;entryDx=0;entryDy=0;fillColor=#f8cecc;strokeColor=#b85450;" parent="1" source="yq_R9H17UePYOClQ4IBd-8" target="RDCLP5AUgi_ZmiMjlqTn-9" edge="1">
          <mxGeometry relative="1" as="geometry" />
        </mxCell>
        <mxCell id="yq_R9H17UePYOClQ4IBd-8" value="&lt;font style=&quot;font-size: 11px;&quot;&gt;Majority&lt;br&gt;Division&lt;/font&gt;" style="ellipse;whiteSpace=wrap;html=1;aspect=fixed;" parent="1" vertex="1">
          <mxGeometry x="320" y="120" width="80" height="80" as="geometry" />
        </mxCell>
        <mxCell id="RDCLP5AUgi_ZmiMjlqTn-16" style="rounded=0;orthogonalLoop=1;jettySize=auto;html=1;exitX=0.5;exitY=1;exitDx=0;exitDy=0;fillColor=#f8cecc;strokeColor=#b85450;" parent="1" source="yq_R9H17UePYOClQ4IBd-10" target="RDCLP5AUgi_ZmiMjlqTn-10" edge="1">
          <mxGeometry relative="1" as="geometry" />
        </mxCell>
        <mxCell id="yq_R9H17UePYOClQ4IBd-10" value="&lt;font style=&quot;font-size: 11px;&quot;&gt;Opposition&lt;br&gt;Division&lt;/font&gt;" style="ellipse;whiteSpace=wrap;html=1;aspect=fixed;" parent="1" vertex="1">
          <mxGeometry x="520" y="120" width="80" height="80" as="geometry" />
        </mxCell>
        <mxCell id="yq_R9H17UePYOClQ4IBd-26" value="Stability" style="ellipse;whiteSpace=wrap;html=1;aspect=fixed;fontFamily=Helvetica;fontSize=11;fontColor=default;" parent="1" vertex="1">
          <mxGeometry x="560" y="440" width="80" height="80" as="geometry" />
        </mxCell>
        <mxCell id="RDCLP5AUgi_ZmiMjlqTn-29" style="rounded=0;orthogonalLoop=1;jettySize=auto;html=1;exitX=1;exitY=0.5;exitDx=0;exitDy=0;fillColor=#f8cecc;strokeColor=#b85450;" parent="1" source="RDCLP5AUgi_ZmiMjlqTn-1" target="yq_R9H17UePYOClQ4IBd-26" edge="1">
          <mxGeometry relative="1" as="geometry" />
        </mxCell>
        <mxCell id="RDCLP5AUgi_ZmiMjlqTn-1" value="Internal&lt;br&gt;Changes" style="ellipse;whiteSpace=wrap;html=1;aspect=fixed;fontFamily=Helvetica;fontSize=11;fontColor=default;" parent="1" vertex="1">
          <mxGeometry x="430" y="440" width="80" height="80" as="geometry" />
        </mxCell>
        <mxCell id="RDCLP5AUgi_ZmiMjlqTn-19" style="rounded=0;orthogonalLoop=1;jettySize=auto;html=1;entryX=0.5;entryY=0;entryDx=0;entryDy=0;fillColor=#f8cecc;strokeColor=#b85450;" parent="1" source="RDCLP5AUgi_ZmiMjlqTn-3" target="yq_R9H17UePYOClQ4IBd-10" edge="1">
          <mxGeometry relative="1" as="geometry" />
        </mxCell>
        <mxCell id="RDCLP5AUgi_ZmiMjlqTn-20" style="rounded=0;orthogonalLoop=1;jettySize=auto;html=1;exitX=0;exitY=1;exitDx=0;exitDy=0;entryX=0.5;entryY=0;entryDx=0;entryDy=0;fillColor=#f8cecc;strokeColor=#b85450;" parent="1" source="RDCLP5AUgi_ZmiMjlqTn-3" target="yq_R9H17UePYOClQ4IBd-8" edge="1">
          <mxGeometry relative="1" as="geometry" />
        </mxCell>
        <mxCell id="RDCLP5AUgi_ZmiMjlqTn-3" value="Decade" style="ellipse;whiteSpace=wrap;html=1;aspect=fixed;fontFamily=Helvetica;fontSize=11;fontColor=default;" parent="1" vertex="1">
          <mxGeometry x="400" y="-40" width="80" height="80" as="geometry" />
        </mxCell>
        <mxCell id="RDCLP5AUgi_ZmiMjlqTn-21" style="rounded=0;orthogonalLoop=1;jettySize=auto;html=1;exitX=0;exitY=1;exitDx=0;exitDy=0;entryX=0.5;entryY=0;entryDx=0;entryDy=0;fillColor=#f8cecc;strokeColor=#b85450;" parent="1" source="RDCLP5AUgi_ZmiMjlqTn-4" target="yq_R9H17UePYOClQ4IBd-4" edge="1">
          <mxGeometry relative="1" as="geometry" />
        </mxCell>
        <mxCell id="RDCLP5AUgi_ZmiMjlqTn-22" style="rounded=0;orthogonalLoop=1;jettySize=auto;html=1;exitX=1;exitY=1;exitDx=0;exitDy=0;fillColor=#f8cecc;strokeColor=#b85450;entryX=0.5;entryY=0;entryDx=0;entryDy=0;" parent="1" source="RDCLP5AUgi_ZmiMjlqTn-4" target="yq_R9H17UePYOClQ4IBd-6" edge="1">
          <mxGeometry relative="1" as="geometry" />
        </mxCell>
        <mxCell id="RDCLP5AUgi_ZmiMjlqTn-4" value="Republic&lt;br&gt;Phase" style="ellipse;whiteSpace=wrap;html=1;aspect=fixed;fontFamily=Helvetica;fontSize=11;fontColor=default;" parent="1" vertex="1">
          <mxGeometry x="130" y="-40" width="80" height="80" as="geometry" />
        </mxCell>
        <mxCell id="RDCLP5AUgi_ZmiMjlqTn-31" style="rounded=0;orthogonalLoop=1;jettySize=auto;html=1;exitX=1;exitY=1;exitDx=0;exitDy=0;fillColor=#f8cecc;strokeColor=#b85450;" parent="1" source="RDCLP5AUgi_ZmiMjlqTn-5" target="RDCLP5AUgi_ZmiMjlqTn-6" edge="1">
          <mxGeometry relative="1" as="geometry" />
        </mxCell>
        <mxCell id="RDCLP5AUgi_ZmiMjlqTn-5" value="Confidence" style="ellipse;whiteSpace=wrap;html=1;aspect=fixed;fontFamily=Helvetica;fontSize=11;fontColor=default;" parent="1" vertex="1">
          <mxGeometry x="-80" y="440" width="80" height="80" as="geometry" />
        </mxCell>
        <mxCell id="RDCLP5AUgi_ZmiMjlqTn-6" value="Fall&lt;br&gt;Cause" style="ellipse;whiteSpace=wrap;html=1;aspect=fixed;fontFamily=Helvetica;fontSize=11;fontColor=default;" parent="1" vertex="1">
          <mxGeometry x="200" y="560" width="80" height="80" as="geometry" />
        </mxCell>
        <mxCell id="RDCLP5AUgi_ZmiMjlqTn-26" style="rounded=0;orthogonalLoop=1;jettySize=auto;html=1;exitX=0.5;exitY=1;exitDx=0;exitDy=0;entryX=0.5;entryY=0;entryDx=0;entryDy=0;fillColor=#f8cecc;strokeColor=#b85450;" parent="1" source="RDCLP5AUgi_ZmiMjlqTn-7" target="RDCLP5AUgi_ZmiMjlqTn-5" edge="1">
          <mxGeometry relative="1" as="geometry" />
        </mxCell>
        <mxCell id="ULl_AFH3r0cVJ4OgVGjS-1" style="rounded=0;orthogonalLoop=1;jettySize=auto;html=1;exitX=1;exitY=0.5;exitDx=0;exitDy=0;entryX=0;entryY=0.5;entryDx=0;entryDy=0;" edge="1" parent="1" source="RDCLP5AUgi_ZmiMjlqTn-7" target="RDCLP5AUgi_ZmiMjlqTn-8">
          <mxGeometry relative="1" as="geometry" />
        </mxCell>
        <mxCell id="RDCLP5AUgi_ZmiMjlqTn-7" value="PM from&lt;br&gt;LMP" style="ellipse;whiteSpace=wrap;html=1;aspect=fixed;fontFamily=Helvetica;fontSize=11;fontColor=default;" parent="1" vertex="1">
          <mxGeometry x="-40" y="280" width="80" height="80" as="geometry" />
        </mxCell>
        <mxCell id="RDCLP5AUgi_ZmiMjlqTn-25" style="rounded=0;orthogonalLoop=1;jettySize=auto;html=1;exitX=0.5;exitY=1;exitDx=0;exitDy=0;fillColor=#f8cecc;strokeColor=#b85450;" parent="1" source="RDCLP5AUgi_ZmiMjlqTn-8" target="RDCLP5AUgi_ZmiMjlqTn-5" edge="1">
          <mxGeometry relative="1" as="geometry" />
        </mxCell>
        <mxCell id="RDCLP5AUgi_ZmiMjlqTn-8" value="Non-political&lt;br&gt;PM" style="ellipse;whiteSpace=wrap;html=1;aspect=fixed;fontFamily=Helvetica;fontSize=11;fontColor=default;" parent="1" vertex="1">
          <mxGeometry x="80" y="280" width="80" height="80" as="geometry" />
        </mxCell>
        <mxCell id="RDCLP5AUgi_ZmiMjlqTn-13" value="" style="rounded=0;orthogonalLoop=1;jettySize=auto;html=1;fillColor=#f8cecc;strokeColor=#b85450;" parent="1" source="RDCLP5AUgi_ZmiMjlqTn-9" target="RDCLP5AUgi_ZmiMjlqTn-11" edge="1">
          <mxGeometry relative="1" as="geometry" />
        </mxCell>
        <mxCell id="RDCLP5AUgi_ZmiMjlqTn-14" value="" style="rounded=0;orthogonalLoop=1;jettySize=auto;html=1;fillColor=#f8cecc;strokeColor=#b85450;" parent="1" source="RDCLP5AUgi_ZmiMjlqTn-9" target="yq_R9H17UePYOClQ4IBd-2" edge="1">
          <mxGeometry relative="1" as="geometry" />
        </mxCell>
        <mxCell id="ULl_AFH3r0cVJ4OgVGjS-4" style="rounded=0;orthogonalLoop=1;jettySize=auto;html=1;exitX=0;exitY=1;exitDx=0;exitDy=0;" edge="1" parent="1" source="RDCLP5AUgi_ZmiMjlqTn-9" target="RDCLP5AUgi_ZmiMjlqTn-6">
          <mxGeometry relative="1" as="geometry" />
        </mxCell>
        <mxCell id="RDCLP5AUgi_ZmiMjlqTn-9" value="Coalition&lt;br&gt;Type" style="ellipse;whiteSpace=wrap;html=1;aspect=fixed;fontFamily=Helvetica;fontSize=11;fontColor=default;" parent="1" vertex="1">
          <mxGeometry x="280" y="280" width="80" height="80" as="geometry" />
        </mxCell>
        <mxCell id="RDCLP5AUgi_ZmiMjlqTn-32" style="rounded=0;orthogonalLoop=1;jettySize=auto;html=1;exitX=0.5;exitY=1;exitDx=0;exitDy=0;fillColor=#f8cecc;strokeColor=#b85450;" parent="1" source="RDCLP5AUgi_ZmiMjlqTn-10" target="yq_R9H17UePYOClQ4IBd-26" edge="1">
          <mxGeometry relative="1" as="geometry" />
        </mxCell>
        <mxCell id="ULl_AFH3r0cVJ4OgVGjS-5" style="rounded=0;orthogonalLoop=1;jettySize=auto;html=1;exitX=0;exitY=1;exitDx=0;exitDy=0;entryX=1;entryY=0.5;entryDx=0;entryDy=0;" edge="1" parent="1" source="RDCLP5AUgi_ZmiMjlqTn-10" target="RDCLP5AUgi_ZmiMjlqTn-6">
          <mxGeometry relative="1" as="geometry" />
        </mxCell>
        <mxCell id="RDCLP5AUgi_ZmiMjlqTn-10" value="Opposition&lt;br&gt;Type" style="ellipse;whiteSpace=wrap;html=1;aspect=fixed;fontFamily=Helvetica;fontSize=11;fontColor=default;" parent="1" vertex="1">
          <mxGeometry x="440" y="280" width="80" height="80" as="geometry" />
        </mxCell>
        <mxCell id="RDCLP5AUgi_ZmiMjlqTn-27" style="rounded=0;orthogonalLoop=1;jettySize=auto;html=1;exitX=0;exitY=0.5;exitDx=0;exitDy=0;fillColor=#f8cecc;strokeColor=#b85450;" parent="1" source="RDCLP5AUgi_ZmiMjlqTn-11" edge="1">
          <mxGeometry relative="1" as="geometry">
            <mxPoint y="480" as="targetPoint" />
          </mxGeometry>
        </mxCell>
        <mxCell id="RDCLP5AUgi_ZmiMjlqTn-28" style="rounded=0;orthogonalLoop=1;jettySize=auto;html=1;exitX=1;exitY=0.5;exitDx=0;exitDy=0;fillColor=#f8cecc;strokeColor=#b85450;" parent="1" source="RDCLP5AUgi_ZmiMjlqTn-11" target="RDCLP5AUgi_ZmiMjlqTn-1" edge="1">
          <mxGeometry relative="1" as="geometry" />
        </mxCell>
        <mxCell id="ULl_AFH3r0cVJ4OgVGjS-3" value="" style="rounded=0;orthogonalLoop=1;jettySize=auto;html=1;" edge="1" parent="1" source="RDCLP5AUgi_ZmiMjlqTn-11" target="RDCLP5AUgi_ZmiMjlqTn-6">
          <mxGeometry relative="1" as="geometry" />
        </mxCell>
        <mxCell id="RDCLP5AUgi_ZmiMjlqTn-11" value="Government&lt;br&gt;Division" style="ellipse;whiteSpace=wrap;html=1;aspect=fixed;fontFamily=Helvetica;fontSize=11;fontColor=default;" parent="1" vertex="1">
          <mxGeometry x="300" y="440" width="80" height="80" as="geometry" />
        </mxCell>
        <mxCell id="RDCLP5AUgi_ZmiMjlqTn-33" style="rounded=0;orthogonalLoop=1;jettySize=auto;html=1;exitX=1;exitY=1;exitDx=0;exitDy=0;entryX=0;entryY=0;entryDx=0;entryDy=0;fillColor=#f8cecc;strokeColor=#b85450;" parent="1" source="RDCLP5AUgi_ZmiMjlqTn-9" target="yq_R9H17UePYOClQ4IBd-26" edge="1">
          <mxGeometry relative="1" as="geometry" />
        </mxCell>
      </root>
    </mxGraphModel>
  </diagram>
</mxfile>
